<mxfile host="app.diagrams.net" modified="2021-07-02T14:53:13.040Z" agent="5.0 (Macintosh; Intel Mac OS X 10_15_7) AppleWebKit/605.1.15 (KHTML, like Gecko) Version/14.1 Safari/605.1.15" etag="9n6kZVsT_4Ia6h9Szg5Z" version="14.8.3" type="github">
  <diagram id="jgYHGT9bPeA_kPWx9DmP" name="Page-1">
    <mxGraphModel dx="599" dy="727" grid="1" gridSize="10" guides="1" tooltips="1" connect="1" arrows="1" fold="1" page="1" pageScale="1" pageWidth="827" pageHeight="1169" math="0" shadow="0">
      <root>
        <mxCell id="0" />
        <mxCell id="1" parent="0" />
        <mxCell id="zvqzcq4YEUCvtmfPgBdI-1" value="openEpDataInterpolator" style="swimlane;fontStyle=1;align=center;verticalAlign=top;childLayout=stackLayout;horizontal=1;startSize=26;horizontalStack=0;resizeParent=1;resizeParentMax=0;resizeLast=0;collapsible=1;marginBottom=0;" parent="1" vertex="1">
          <mxGeometry x="20" y="150" width="280" height="248" as="geometry" />
        </mxCell>
        <mxCell id="zvqzcq4YEUCvtmfPgBdI-2" value="+ method: String (public)&#xa;&#xa;+ distanceThreshold: Double (public)&#xa;&#xa;+ call_interpolator: openEpInterpolator (private)" style="text;strokeColor=none;fillColor=none;align=left;verticalAlign=top;spacingLeft=4;spacingRight=4;overflow=hidden;rotatable=0;points=[[0,0.5],[1,0.5]];portConstraint=eastwest;" parent="zvqzcq4YEUCvtmfPgBdI-1" vertex="1">
          <mxGeometry y="26" width="280" height="94" as="geometry" />
        </mxCell>
        <mxCell id="zvqzcq4YEUCvtmfPgBdI-3" value="" style="line;strokeWidth=1;fillColor=none;align=left;verticalAlign=middle;spacingTop=-1;spacingLeft=3;spacingRight=3;rotatable=0;labelPosition=right;points=[];portConstraint=eastwest;" parent="zvqzcq4YEUCvtmfPgBdI-1" vertex="1">
          <mxGeometry y="120" width="280" height="8" as="geometry" />
        </mxCell>
        <mxCell id="zvqzcq4YEUCvtmfPgBdI-4" value="+ openEpDataInterpolator(): constructor&#xa;&#xa;+ interpolate(): public&#xa;&#xa;+ call_interpolator(): private&#xa;&#xa;+ disp(): public, overridden" style="text;strokeColor=none;fillColor=none;align=left;verticalAlign=top;spacingLeft=4;spacingRight=4;overflow=hidden;rotatable=0;points=[[0,0.5],[1,0.5]];portConstraint=eastwest;" parent="zvqzcq4YEUCvtmfPgBdI-1" vertex="1">
          <mxGeometry y="128" width="280" height="120" as="geometry" />
        </mxCell>
        <mxCell id="zvqzcq4YEUCvtmfPgBdI-5" value="openEpScatteredInterpolant" style="swimlane;fontStyle=1;align=center;verticalAlign=top;childLayout=stackLayout;horizontal=1;startSize=26;horizontalStack=0;resizeParent=1;resizeParentMax=0;resizeLast=0;collapsible=1;marginBottom=0;" parent="1" vertex="1">
          <mxGeometry x="420" y="480" width="190" height="124" as="geometry" />
        </mxCell>
        <mxCell id="zvqzcq4YEUCvtmfPgBdI-6" value="+ interMethod: String&#xa;&#xa;+ exterMethod: String" style="text;strokeColor=none;fillColor=none;align=left;verticalAlign=top;spacingLeft=4;spacingRight=4;overflow=hidden;rotatable=0;points=[[0,0.5],[1,0.5]];portConstraint=eastwest;" parent="zvqzcq4YEUCvtmfPgBdI-5" vertex="1">
          <mxGeometry y="26" width="190" height="64" as="geometry" />
        </mxCell>
        <mxCell id="zvqzcq4YEUCvtmfPgBdI-7" value="" style="line;strokeWidth=1;fillColor=none;align=left;verticalAlign=middle;spacingTop=-1;spacingLeft=3;spacingRight=3;rotatable=0;labelPosition=right;points=[];portConstraint=eastwest;" parent="zvqzcq4YEUCvtmfPgBdI-5" vertex="1">
          <mxGeometry y="90" width="190" height="8" as="geometry" />
        </mxCell>
        <mxCell id="zvqzcq4YEUCvtmfPgBdI-8" value="+ interpolate(x, f_x, q): public" style="text;strokeColor=none;fillColor=none;align=left;verticalAlign=top;spacingLeft=4;spacingRight=4;overflow=hidden;rotatable=0;points=[[0,0.5],[1,0.5]];portConstraint=eastwest;" parent="zvqzcq4YEUCvtmfPgBdI-5" vertex="1">
          <mxGeometry y="98" width="190" height="26" as="geometry" />
        </mxCell>
        <mxCell id="zvqzcq4YEUCvtmfPgBdI-9" value="openEpLocalSmoothing" style="swimlane;fontStyle=1;align=center;verticalAlign=top;childLayout=stackLayout;horizontal=1;startSize=26;horizontalStack=0;resizeParent=1;resizeParentMax=0;resizeLast=0;collapsible=1;marginBottom=0;" parent="1" vertex="1">
          <mxGeometry x="20" y="480" width="190" height="124" as="geometry" />
        </mxCell>
        <mxCell id="zvqzcq4YEUCvtmfPgBdI-10" value="+ smoothingLength: Double&#xa;&#xa;+ fillWith: Double" style="text;strokeColor=none;fillColor=none;align=left;verticalAlign=top;spacingLeft=4;spacingRight=4;overflow=hidden;rotatable=0;points=[[0,0.5],[1,0.5]];portConstraint=eastwest;" parent="zvqzcq4YEUCvtmfPgBdI-9" vertex="1">
          <mxGeometry y="26" width="190" height="64" as="geometry" />
        </mxCell>
        <mxCell id="zvqzcq4YEUCvtmfPgBdI-11" value="" style="line;strokeWidth=1;fillColor=none;align=left;verticalAlign=middle;spacingTop=-1;spacingLeft=3;spacingRight=3;rotatable=0;labelPosition=right;points=[];portConstraint=eastwest;" parent="zvqzcq4YEUCvtmfPgBdI-9" vertex="1">
          <mxGeometry y="90" width="190" height="8" as="geometry" />
        </mxCell>
        <mxCell id="zvqzcq4YEUCvtmfPgBdI-12" value="+ interpolate(x, f_x, q): public" style="text;strokeColor=none;fillColor=none;align=left;verticalAlign=top;spacingLeft=4;spacingRight=4;overflow=hidden;rotatable=0;points=[[0,0.5],[1,0.5]];portConstraint=eastwest;" parent="zvqzcq4YEUCvtmfPgBdI-9" vertex="1">
          <mxGeometry y="98" width="190" height="26" as="geometry" />
        </mxCell>
        <mxCell id="zvqzcq4YEUCvtmfPgBdI-13" value="openEpLocalSmoothing" style="swimlane;fontStyle=1;align=center;verticalAlign=top;childLayout=stackLayout;horizontal=1;startSize=26;horizontalStack=0;resizeParent=1;resizeParentMax=0;resizeLast=0;collapsible=1;marginBottom=0;" parent="1" vertex="1">
          <mxGeometry x="220" y="480" width="190" height="124" as="geometry" />
        </mxCell>
        <mxCell id="zvqzcq4YEUCvtmfPgBdI-14" value="+ rbfFunction: String&#xa;&#xa;+ rfbConstant: Double" style="text;strokeColor=none;fillColor=none;align=left;verticalAlign=top;spacingLeft=4;spacingRight=4;overflow=hidden;rotatable=0;points=[[0,0.5],[1,0.5]];portConstraint=eastwest;" parent="zvqzcq4YEUCvtmfPgBdI-13" vertex="1">
          <mxGeometry y="26" width="190" height="64" as="geometry" />
        </mxCell>
        <mxCell id="zvqzcq4YEUCvtmfPgBdI-15" value="" style="line;strokeWidth=1;fillColor=none;align=left;verticalAlign=middle;spacingTop=-1;spacingLeft=3;spacingRight=3;rotatable=0;labelPosition=right;points=[];portConstraint=eastwest;" parent="zvqzcq4YEUCvtmfPgBdI-13" vertex="1">
          <mxGeometry y="90" width="190" height="8" as="geometry" />
        </mxCell>
        <mxCell id="zvqzcq4YEUCvtmfPgBdI-16" value="+ interpolate(x, f_x, q): public" style="text;strokeColor=none;fillColor=none;align=left;verticalAlign=top;spacingLeft=4;spacingRight=4;overflow=hidden;rotatable=0;points=[[0,0.5],[1,0.5]];portConstraint=eastwest;" parent="zvqzcq4YEUCvtmfPgBdI-13" vertex="1">
          <mxGeometry y="98" width="190" height="26" as="geometry" />
        </mxCell>
        <mxCell id="zvqzcq4YEUCvtmfPgBdI-17" value="" style="endArrow=open;endFill=1;endSize=12;html=1;exitX=1;exitY=0.5;exitDx=0;exitDy=0;entryX=0;entryY=0.25;entryDx=0;entryDy=0;" parent="1" source="zvqzcq4YEUCvtmfPgBdI-2" target="zvqzcq4YEUCvtmfPgBdI-27" edge="1">
          <mxGeometry width="160" relative="1" as="geometry">
            <mxPoint x="270" y="510" as="sourcePoint" />
            <mxPoint x="442.06999999999994" y="182.01199999999994" as="targetPoint" />
            <Array as="points" />
          </mxGeometry>
        </mxCell>
        <mxCell id="zvqzcq4YEUCvtmfPgBdI-22" value="Extends" style="endArrow=block;endSize=16;endFill=0;html=1;entryX=0.25;entryY=1;entryDx=0;entryDy=0;" parent="1" source="zvqzcq4YEUCvtmfPgBdI-9" target="zvqzcq4YEUCvtmfPgBdI-33" edge="1">
          <mxGeometry y="10" width="160" relative="1" as="geometry">
            <mxPoint x="730" y="870" as="sourcePoint" />
            <mxPoint x="490" y="310" as="targetPoint" />
            <mxPoint as="offset" />
          </mxGeometry>
        </mxCell>
        <mxCell id="zvqzcq4YEUCvtmfPgBdI-34" value="Extends" style="endArrow=block;endSize=16;endFill=0;html=1;entryX=0.5;entryY=1;entryDx=0;entryDy=0;" parent="1" source="zvqzcq4YEUCvtmfPgBdI-13" target="zvqzcq4YEUCvtmfPgBdI-33" edge="1">
          <mxGeometry y="10" width="160" relative="1" as="geometry">
            <mxPoint x="269.1077441077441" y="490" as="sourcePoint" />
            <mxPoint x="550" y="320" as="targetPoint" />
            <mxPoint as="offset" />
          </mxGeometry>
        </mxCell>
        <mxCell id="zvqzcq4YEUCvtmfPgBdI-35" value="Extends" style="endArrow=block;endSize=16;endFill=0;html=1;entryX=0.75;entryY=1;entryDx=0;entryDy=0;" parent="1" source="zvqzcq4YEUCvtmfPgBdI-5" target="zvqzcq4YEUCvtmfPgBdI-33" edge="1">
          <mxGeometry y="10" width="160" relative="1" as="geometry">
            <mxPoint x="468.08510638297867" y="490" as="sourcePoint" />
            <mxPoint x="550" y="270" as="targetPoint" />
            <mxPoint as="offset" />
          </mxGeometry>
        </mxCell>
        <mxCell id="zvqzcq4YEUCvtmfPgBdI-36" value="" style="group" parent="1" vertex="1" connectable="0">
          <mxGeometry x="350" y="260" width="180" height="100" as="geometry" />
        </mxCell>
        <mxCell id="zvqzcq4YEUCvtmfPgBdI-27" value="«interface»&lt;br&gt;&lt;b&gt;openEpInterpolator&lt;/b&gt;" style="html=1;" parent="zvqzcq4YEUCvtmfPgBdI-36" vertex="1">
          <mxGeometry width="180" height="50" as="geometry" />
        </mxCell>
        <mxCell id="zvqzcq4YEUCvtmfPgBdI-33" value="&lt;span style=&quot;text-align: left&quot;&gt;+ interpolate(x, f_x, q): public&lt;/span&gt;" style="html=1;" parent="zvqzcq4YEUCvtmfPgBdI-36" vertex="1">
          <mxGeometry y="50" width="180" height="50" as="geometry" />
        </mxCell>
        <mxCell id="4owkeiqQ8d7qHkTqZ-NT-1" value="quLATiInterpolant" style="swimlane;fontStyle=1;align=center;verticalAlign=top;childLayout=stackLayout;horizontal=1;startSize=26;horizontalStack=0;resizeParent=1;resizeParentMax=0;resizeLast=0;collapsible=1;marginBottom=0;" vertex="1" parent="1">
          <mxGeometry x="620" y="480" width="190" height="124" as="geometry" />
        </mxCell>
        <mxCell id="4owkeiqQ8d7qHkTqZ-NT-2" value="+&#xa;&#xa;+" style="text;strokeColor=none;fillColor=none;align=left;verticalAlign=top;spacingLeft=4;spacingRight=4;overflow=hidden;rotatable=0;points=[[0,0.5],[1,0.5]];portConstraint=eastwest;" vertex="1" parent="4owkeiqQ8d7qHkTqZ-NT-1">
          <mxGeometry y="26" width="190" height="64" as="geometry" />
        </mxCell>
        <mxCell id="4owkeiqQ8d7qHkTqZ-NT-3" value="" style="line;strokeWidth=1;fillColor=none;align=left;verticalAlign=middle;spacingTop=-1;spacingLeft=3;spacingRight=3;rotatable=0;labelPosition=right;points=[];portConstraint=eastwest;" vertex="1" parent="4owkeiqQ8d7qHkTqZ-NT-1">
          <mxGeometry y="90" width="190" height="8" as="geometry" />
        </mxCell>
        <mxCell id="4owkeiqQ8d7qHkTqZ-NT-4" value="+ interpolate(x, f_x, q): public" style="text;strokeColor=none;fillColor=none;align=left;verticalAlign=top;spacingLeft=4;spacingRight=4;overflow=hidden;rotatable=0;points=[[0,0.5],[1,0.5]];portConstraint=eastwest;" vertex="1" parent="4owkeiqQ8d7qHkTqZ-NT-1">
          <mxGeometry y="98" width="190" height="26" as="geometry" />
        </mxCell>
        <mxCell id="4owkeiqQ8d7qHkTqZ-NT-5" value="Extends" style="endArrow=block;endSize=16;endFill=0;html=1;entryX=1;entryY=1;entryDx=0;entryDy=0;exitX=0.5;exitY=0;exitDx=0;exitDy=0;" edge="1" parent="1" source="4owkeiqQ8d7qHkTqZ-NT-1" target="zvqzcq4YEUCvtmfPgBdI-33">
          <mxGeometry y="10" width="160" relative="1" as="geometry">
            <mxPoint x="514.7802197802198" y="490" as="sourcePoint" />
            <mxPoint x="495" y="370" as="targetPoint" />
            <mxPoint as="offset" />
          </mxGeometry>
        </mxCell>
      </root>
    </mxGraphModel>
  </diagram>
</mxfile>
